PathFileType	4	(X/Y/Z)	Walk5.trc
DataRate	CameraRate	NumFrames	NumMarkers	Units	OrigDataRate	OrigDataStartFrame	OrigNumFrames
200.000000	200.000000	6	69	mm	200.000000	127	453
Frame#	Times		LFHD		RFHD		LBHD		RBHD		C7		CLAV		STRN		RBack		LASI		RASI		LPSI		RPSI		RACR1		RUA1		RElbow		RFA1		RWRR		RWRU		RCAR		LACR1		LUA1		LElbow		LElbowM		LFA1		LWRR		LWRU		LCAR		RTH1		RTH3		RTH2		RTH4		RLFC		RTB1		RTB3		RTB2		RTB4		RLMAL		RMMAL		RCAL		RMT1		RMT5		RToe		LTH1		LTH3		LTH2		LTH4		LLFC		LTB1		LTB3		LTB2		LTB4		LMMAL		LMT1		LMT5		LHJC		LowerBodyModelVer		MidPelvis		OPelvis		PELOrigin		RHJC		SACR		XPelvis		YPelvis		ZPelvis		LToe		T10		LLMAL		LCAL		RElbowM
			X1	Y1	Z1	X2	Y2	Z2	X3	Y3	Z3	X4	Y4	Z4	X5	Y5	Z5	X6	Y6	Z6	X7	Y7	Z7	X8	Y8	Z8	X9	Y9	Z9	X10	Y10	Z10	X11	Y11	Z11	X12	Y12	Z12	X13	Y13	Z13	X14	Y14	Z14	X15	Y15	Z15	X16	Y16	Z16	X17	Y17	Z17	X18	Y18	Z18	X19	Y19	Z19	X20	Y20	Z20	X21	Y21	Z21	X22	Y22	Z22	X23	Y23	Z23	X24	Y24	Z24	X25	Y25	Z25	X26	Y26	Z26	X27	Y27	Z27	X28	Y28	Z28	X29	Y29	Z29	X30	Y30	Z30	X31	Y31	Z31	X32	Y32	Z32	X33	Y33	Z33	X34	Y34	Z34	X35	Y35	Z35	X36	Y36	Z36	X37	Y37	Z37	X38	Y38	Z38	X39	Y39	Z39	X40	Y40	Z40	X41	Y41	Z41	X42	Y42	Z42	X43	Y43	Z43	X44	Y44	Z44	X45	Y45	Z45	X46	Y46	Z46	X47	Y47	Z47	X48	Y48	Z48	X49	Y49	Z49	X50	Y50	Z50	X51	Y51	Z51	X52	Y52	Z52	X53	Y53	Z53	X54	Y54	Z54	X55	Y55	Z55	X56	Y56	Z56	X57	Y57	Z57	X58	Y58	Z58	X59	Y59	Z59	X60	Y60	Z60	X61	Y61	Z61	X62	Y62	Z62	X63	Y63	Z63	X64	Y64	Z64	X65	Y65	Z65	X66	Y66	Z66	X67	Y67	Z67	X68	Y68	Z68	X69	Y69	Z69

127	0.635	-682.17	1565.1	-44.598	-661.55	1563.3	48.577	-842.87	1528.8	-41.434	-811.93	1526.1	98.327	-864.11	1392.5	31.028	-725.95	1311.5	8.5737	-669.35	1206	6.6048	-906.52	1290.8	137.36	-683.03	935.5	-130.71	-686.37	946.1	164.26	-932.29	938.08	-36.759	-932.78	945.26	52.215	-778.33	1343.2	171.15	-771.68	1164	267.24	-807.14	1041.9	302.3	-763.84	899.86	319.1	-659.67	828.06	278.77	-711.48	801.98	321.84	-635.83	782.92	331.41	-804.81	1354.5	-141.41	-867.83	1181	-230.78	-939.73	1070.6	-247.43	-956.4	1048.7	-168.34	-976.11	939.73	-267.69	-929.75	811.95	-249.53	-990.65	824.76	-285.11	-945.53	766.47	-291.71	-799.4	718.86	225.49	-868.71	569.11	176.23	-783.76	629.74	175.98	-836.46	643.7	198.67	-909.78	490.11	154.51	-930.86	329.26	79.815	-1006	173.33	76.748	-989.91	261.59	133.81	-968.41	251.3	78.281	-1084.5	82.258	99.038	-1066.9	85.128	16.298	-1153.8	63.828	62.283	-977.7	32.407	42.151	-1012.7	25.524	117.24	-910.01	21.389	77.97	-753.56	726.91	-207	-681.79	578.85	-157.55	-666.55	683.97	-170.16	-718.23	654.59	-178.66	-636.49	472.29	-123.27	-543.25	356.15	-49.302	-502.41	188.85	-59.422	-542.79	269.08	-111.21	-523.56	271.76	-53.016	-492.61	78.674	-5.9839	-385.54	74.809	-22.905	-407.3	53.291	-94.551	-753.5	843.1	-80.928	9	2014	4	-808.62	941.23	12.251	-684.7	940.8	16.774	-684.7	940.8	16.774	-755.77	850.32	119.66	-932.53	941.67	7.7283	-604.7	940.45	17.693	-684.31	1020.7	13.903	-685.6	943.68	96.717	-326.14	97.14	-48.853	-938.78	1127.2	19.004	-505.24	70.714	-89.465	-555.28	23.155	-53.101	-822.53	1003.9	213.58
128	0.64	-676.67	1564.7	-45.267	-656.13	1562.8	47.914	-837.34	1528.3	-42.298	-806.52	1525.4	97.474	-858.49	1391.9	30.054	-720.22	1310.9	7.7459	-663.54	1205.5	5.8806	-900.96	1290.1	136.33	-676.55	934.98	-131.26	-680.43	945.54	163.91	-926.03	937.46	-37.519	-926.6	944.51	51.47	-772.82	1342.6	170.3	-766.44	1163.4	266.48	-801.99	1041.3	301.47	-758.94	899.21	318.35	-654.85	827.15	278.15	-706.73	801.18	321.14	-631.18	782.03	330.85	-799.08	1353.7	-142.36	-861.99	1180	-231.51	-933.93	1069.7	-248.05	-950.62	1047.8	-168.96	-970.46	938.82	-268.17	-924.25	811	-249.9	-985.17	823.85	-285.46	-940.11	765.51	-292.03	-793.65	718.39	225.13	-863.27	568.76	175.89	-778.13	629.19	175.79	-830.85	643.29	198.34	-904.49	489.78	154.19	-927	328.75	79.44	-1004	173.75	76.754	-986.71	261.84	133.7	-965.51	251.25	78.097	-1083.6	83.68	99.446	-1066.2	86.305	16.628	-1153.2	66.1	62.892	-977.54	32.574	42.221	-1012.4	25.792	117.32	-909.88	21.273	77.979	-747.19	726.46	-207.15	-675.1	578.64	-157.51	-660.02	683.73	-170.41	-711.69	654.28	-178.67	-629.74	472.01	-123.17	-537.58	355.05	-48.8	-498.15	187.46	-58.822	-537.72	268.01	-110.71	-518.58	270.51	-52.454	-489.64	77.16	-5.4047	-382.61	71.688	-22.26	-404.68	50.851	-93.997	-747.1	842.47	-81.582	9	2014	4	-802.4	940.62	11.651	-678.49	940.26	16.327	-678.49	940.26	16.327	-749.74	849.65	119.14	-926.32	940.98	6.9757	-598.5	939.95	17.391	-678.15	1020.2	13.47	-679.54	943.12	96.269	-322.78	93.091	-48.005	-932.81	1126.4	18.116	-502.17	69.596	-88.979	-552.95	23.079	-52.857	-817.05	1002.8	213.21
129	0.645	-671.17	1564.4	-45.957	-650.71	1562.4	47.228	-831.8	1527.8	-43.184	-801.11	1524.8	96.593	-852.84	1391.3	29.052	-714.48	1310.5	6.8952	-657.69	1205	5.1344	-895.4	1289.5	135.26	-670.04	934.52	-131.83	-674.45	945.01	163.5	-919.75	936.9	-38.263	-920.39	943.82	50.746	-767.29	1342.1	169.42	-761.22	1162.8	265.69	-796.88	1040.8	300.6	-754.13	898.59	317.57	-650.12	826.25	277.53	-702.09	800.41	320.42	-626.65	781.15	330.3	-793.34	1352.9	-143.34	-856.09	1179.1	-232.27	-928.02	1068.7	-248.69	-944.76	1046.9	-169.61	-964.69	937.92	-268.69	-918.6	810.06	-250.29	-979.56	822.94	-285.84	-934.54	764.56	-292.36	-787.82	717.95	224.76	-857.69	568.42	175.53	-772.38	628.67	175.59	-825.14	642.9	198	-899.03	489.43	153.87	-922.97	328.21	79.067	-1002	174.21	76.762	-983.36	262.1	133.59	-962.46	251.21	77.914	-1082.6	85.195	99.872	-1065.5	87.57	16.976	-1152.6	68.518	63.516	-977.35	32.752	42.292	-1012.1	26.084	117.4	-909.75	21.164	77.973	-740.75	726.1	-207.29	-668.41	578.49	-157.47	-653.46	683.54	-170.68	-705.13	654.05	-178.68	-622.98	471.81	-123.08	-531.93	353.97	-48.302	-494.07	186.07	-58.223	-532.77	266.95	-110.22	-513.72	269.28	-51.894	-486.97	75.632	-4.8265	-380.01	68.353	-21.647	-402.46	48.279	-93.495	-740.66	841.9	-82.274	9	2014	4	-796.16	940.06	11.038	-672.25	939.76	15.834	-672.25	939.76	15.834	-743.66	849.04	118.56	-920.07	940.36	6.2412	-592.26	939.5	17.036	-671.94	1019.7	12.998	-673.44	942.6	95.775	-319.74	88.716	-47.209	-926.82	1125.8	17.22	-499.44	68.497	-88.499	-551.03	23.123	-52.6	-811.55	1001.7	212.87
130	0.65	-665.65	1564.1	-46.666	-645.27	1562.1	46.52	-826.24	1527.4	-44.091	-795.68	1524.3	95.687	-847.17	1390.8	28.025	-708.73	1310.1	6.0232	-651.82	1204.6	4.368	-889.82	1288.9	134.18	-663.52	934.13	-132.43	-668.41	944.52	163.02	-913.46	936.42	-38.989	-914.14	943.19	50.045	-761.74	1341.6	168.53	-756	1162.3	264.88	-791.8	1040.3	299.71	-749.41	898.02	316.77	-645.49	825.38	276.91	-697.57	799.67	319.68	-622.25	780.28	329.76	-787.58	1352.2	-144.34	-850.12	1178.2	-233.04	-922.02	1067.8	-249.36	-938.8	1046	-170.29	-958.79	937.02	-269.23	-912.83	809.13	-250.68	-973.8	822.04	-286.25	-928.82	763.62	-292.71	-781.91	717.55	224.37	-851.97	568.08	175.17	-766.53	628.2	175.38	-819.32	642.54	197.65	-893.38	489.06	153.53	-918.77	327.64	78.696	-999.77	174.72	76.773	-979.86	262.38	133.48	-959.27	251.18	77.735	-1081.6	86.811	100.31	-1064.7	88.931	17.34	-1151.8	71.095	64.149	-977.14	32.94	42.364	-1011.7	26.401	117.47	-909.61	21.06	77.953	-734.28	725.81	-207.45	-661.73	578.39	-157.42	-646.88	683.39	-170.97	-698.55	653.88	-178.68	-616.22	471.69	-123.01	-526.32	352.93	-47.817	-490.17	184.69	-57.635	-527.93	265.94	-109.73	-508.94	268.07	-51.345	-484.57	74.127	-4.258	-377.7	64.879	-21.063	-400.57	45.638	-93.05	-734.2	841.42	-82.999	9	2014	4	-789.88	939.56	10.412	-665.96	939.32	15.295	-665.96	939.32	15.295	-737.53	848.49	117.91	-913.8	939.8	5.5281	-585.98	939.1	16.629	-665.7	1019.3	12.488	-667.29	942.13	95.235	-316.98	84.107	-46.461	-920.82	1125.2	16.317	-497.01	67.443	-88.033	-549.45	23.284	-52.339	-806	1000.6	212.57
131	0.655	-660.12	1564	-47.394	-639.83	1561.9	45.79	-820.67	1527	-45.018	-790.24	1523.9	94.757	-841.47	1390.3	26.973	-702.98	1309.8	5.1318	-645.91	1204.3	3.5832	-884.23	1288.4	133.08	-656.97	933.81	-133.04	-662.33	944.07	162.46	-907.15	936.02	-39.691	-907.86	942.63	49.372	-756.18	1341.2	167.62	-750.8	1161.9	264.03	-786.77	1039.9	298.79	-744.77	897.51	315.93	-640.96	824.54	276.29	-693.18	798.98	318.93	-617.97	779.43	329.21	-781.8	1351.6	-145.36	-844.08	1177.3	-233.83	-915.92	1066.9	-250.06	-932.76	1045.1	-170.99	-952.77	936.15	-269.81	-906.91	808.23	-251.09	-967.89	821.16	-286.69	-922.95	762.71	-293.07	-775.93	717.18	223.97	-846.09	567.74	174.8	-760.55	627.76	175.15	-813.38	642.19	197.28	-887.53	488.67	153.19	-914.37	327.06	78.332	-997.46	175.27	76.788	-976.18	262.68	133.38	-955.92	251.16	77.56	-1080.4	88.534	100.76	-1063.7	90.394	17.719	-1151	73.841	64.782	-976.9	33.137	42.436	-1011.3	26.747	117.53	-909.47	20.96	77.921	-727.76	725.6	-207.62	-655.07	578.35	-157.36	-640.27	683.29	-171.27	-691.97	653.78	-178.7	-609.46	471.65	-122.96	-520.73	351.96	-47.354	-486.43	183.36	-57.07	-523.17	264.99	-109.26	-504.26	266.93	-50.818	-482.41	72.675	-3.7081	-375.65	61.34	-20.505	-398.98	42.993	-92.666	-727.7	841.04	-83.751	9	2014	4	-783.58	939.13	9.7753	-659.65	938.94	14.71	-659.65	938.94	14.71	-731.34	848.01	117.19	-907.5	939.32	4.8401	-579.66	938.75	16.168	-659.41	1018.9	11.94	-661.1	941.71	94.649	-314.47	79.359	-45.756	-914.8	1124.7	15.413	-494.82	66.454	-87.59	-548.14	23.554	-52.081	-800.37	999.56	212.27
132	0.66	-654.58	1563.9	-48.141	-634.38	1561.8	45.039	-815.09	1526.7	-45.964	-784.79	1523.6	93.805	-835.75	1390	25.897	-697.21	1309.5	4.2231	-639.99	1204.1	2.7822	-878.62	1288	131.96	-650.41	933.58	-133.66	-656.2	943.67	161.82	-900.82	935.7	-40.368	-901.56	942.14	48.729	-750.59	1340.9	166.71	-745.6	1161.6	263.17	-781.77	1039.6	297.83	-740.22	897.06	315.07	-636.52	823.74	275.65	-688.91	798.33	318.16	-613.83	778.6	328.66	-776.01	1351	-146.4	-837.98	1176.5	-234.64	-909.73	1066	-250.78	-926.63	1044.2	-171.71	-946.63	935.3	-270.4	-900.87	807.36	-251.5	-961.84	820.31	-287.17	-916.92	761.81	-293.44	-769.86	716.85	223.54	-840.03	567.4	174.42	-754.45	627.37	174.88	-807.31	641.86	196.88	-881.46	488.24	152.83	-909.77	326.45	77.977	-995	175.88	76.808	-972.32	262.99	133.28	-952.39	251.17	77.393	-1079.1	90.371	101.22	-1062.7	91.967	18.111	-1150	76.771	65.407	-976.63	33.343	42.506	-1010.9	27.125	117.58	-909.33	20.863	77.878	-721.21	725.49	-207.82	-648.44	578.38	-157.31	-633.66	683.25	-171.6	-685.38	653.76	-178.72	-602.71	471.7	-122.93	-515.17	351.06	-46.925	-482.82	182.1	-56.539	-518.49	264.12	-108.83	-499.66	265.86	-50.323	-480.45	71.3	-3.1851	-373.84	57.811	-19.971	-397.65	40.404	-92.348	-721.16	840.75	-84.527	9	2014	4	-777.25	938.77	9.1308	-653.3	938.62	14.081	-653.3	938.62	14.081	-725.1	847.61	116.4	-901.19	938.92	4.1805	-573.32	938.47	15.653	-653.1	1018.6	11.355	-654.87	941.35	94.019	-312.2	74.565	-45.088	-908.78	1124.3	14.508	-492.85	65.538	-87.178	-547.05	23.917	-51.835	-794.66	998.5	211.98
